<?xml version="1.0" encoding="UTF-8"?>
<!DOCTYPE svg PUBLIC "-//W3C//DTD SVG 1.1//EN" "http://www.w3.org/Graphics/SVG/1.1/DTD/svg11.dtd">
<svg xmlns="http://www.w3.org/2000/svg" version="1.1" width="512px" height="512px" style="shape-rendering:geometricPrecision; text-rendering:geometricPrecision; image-rendering:optimizeQuality; fill-rule:evenodd; clip-rule:evenodd" xmlns:xlink="http://www.w3.org/1999/xlink">
<g><path style="opacity:0.977" fill="#000000" d="M 262.5,21.5 C 297.632,21.9655 317.298,39.6321 321.5,74.5C 318.167,106.5 300.5,124.166 268.5,127.5C 245.039,126.192 228.539,114.859 219,93.5C 211.004,67.4878 217.838,46.3211 239.5,30C 246.745,25.6449 254.412,22.8115 262.5,21.5 Z"/></g>
<g><path style="opacity:0.978" fill="#000000" d="M 265.5,143.5 C 288.478,143.397 305.312,153.397 316,173.5C 341.167,198.667 366.333,223.833 391.5,249C 366.333,274.167 341.167,299.333 316,324.5C 314.291,327.418 312.458,330.252 310.5,333C 349.207,371.373 387.54,410.04 425.5,449C 405.874,469.626 385.874,489.96 365.5,510C 360.698,510.102 356.698,508.269 353.5,504.5C 345.44,494.828 342.94,483.828 346,471.5C 347.636,463.912 350.802,457.079 355.5,451C 326.292,421.959 297.292,392.793 268.5,363.5C 227.833,403.833 187.167,444.167 146.5,484.5C 126.18,464.681 106.014,444.681 86,424.5C 88.1242,412.715 95.2908,405.881 107.5,404C 120.579,402.693 132.579,405.693 143.5,413C 144.5,413.667 145.5,413.667 146.5,413C 173.167,386.333 199.833,359.667 226.5,333C 220.666,325.508 217.166,317.008 216,307.5C 215.667,282.833 215.333,258.167 215,233.5C 204.167,244.333 193.333,255.167 182.5,266C 181.833,266.667 181.167,266.667 180.5,266C 159.667,245.167 138.833,224.333 118,203.5C 112.435,193.421 113.602,184.255 121.5,176C 129.683,171.166 137.683,171.499 145.5,177C 157.347,189.014 169.347,200.848 181.5,212.5C 194.819,199.681 207.986,186.681 221,173.5C 230.601,155.624 245.434,145.624 265.5,143.5 Z M 321.5,233.5 C 326.965,238.464 332.298,243.63 337.5,249C 332.333,254.167 327.167,259.333 322,264.5C 321.5,254.172 321.334,243.839 321.5,233.5 Z"/></g>
</svg>
